<?xml version="1.0" encoding="UTF-8"?>
<!DOCTYPE svg PUBLIC "-//W3C//DTD SVG 1.1//EN" "http://www.w3.org/Graphics/SVG/1.1/DTD/svg11.dtd">
<!-- Creator: CorelDRAW 2018 (64 Bit Versión de evaluación) -->
<svg xmlns="http://www.w3.org/2000/svg" xml:space="preserve" width="274.637mm" height="352.285mm" version="1.1" style="shape-rendering:geometricPrecision; text-rendering:geometricPrecision; image-rendering:optimizeQuality; fill-rule:evenodd; clip-rule:evenodd"
viewBox="0 0 21702.69 27838.68"
 xmlns:xlink="http://www.w3.org/1999/xlink">
 <defs>
  <style type="text/css">
   <![CDATA[
    .str0 {stroke:#373435;stroke-width:15.8;stroke-miterlimit:22.9256}
    .fil7 {fill:#020202}
    .fil11 {fill:#030402}
    .fil5 {fill:#060201}
    .fil2 {fill:#5A2926}
    .fil4 {fill:#ACD8D7}
    .fil9 {fill:#B34848}
    .fil6 {fill:#B6D2E6}
    .fil0 {fill:#B7D3E8}
    .fil10 {fill:#C9E3BC}
    .fil1 {fill:#D1C6BB}
    .fil8 {fill:#D5CABD}
    .fil12 {fill:#E3DDAC}
    .fil13 {fill:#E3DDB4}
    .fil3 {fill:#FCFCFC}
   ]]>
  </style>
 </defs>
 <g id="Capa_x0020_1">
  <metadata id="CorelCorpID_0Corel-Layer"/>
  <path class="fil0 str0" d="M10417.54 4944.63c-1268.06,-2065.5 -1704.41,-2073.86 -3164.58,-3408.66 -174.98,-159.96 -401.84,-359.48 -552.94,-534.2 -92.81,-107.33 -178.02,-183.33 -267.69,-290.2 -57.45,-68.47 -172.82,-277.26 -232.33,-313.1 -358.99,888.01 -288.91,2058.33 -177.33,3060.23 132.77,1192.14 314.45,1790.92 314.45,3149.48 0,156.14 45.23,461.88 -85.8,536.39 -242.82,112.45 -976.26,-395.87 -1226.58,-481.17 -903.09,-307.75 -1967.88,-469.62 -2921.63,-615.12 -516.2,-78.75 -980.88,-258.64 -1489.79,-313.93 73.35,191.44 312.78,408.61 439.95,551.5 63.47,71.33 137.37,189.97 218.29,283.09l662.15 844.37c548.77,799.44 1144.83,1518.63 1689.34,2325.01 105.12,155.68 349.65,465.38 329.69,653.29 -199.03,135.76 -758.43,292.9 -1017.31,398.31 -334.93,136.38 -658.91,306.77 -1002.21,448.95 -507.14,210.04 -953.74,485.77 -1427.82,719.69 -130.41,64.35 -397.71,136.04 -494.75,225.15 86.44,113.71 878.88,463.17 1056.09,528.69 201.86,74.64 411.08,130.58 603.48,199.83 226.29,81.43 1160.05,562.53 1644.63,758.9l1070.2 540.99c20.59,211.92 -114.96,239.39 -222.72,371.19 -109.53,133.96 -155.11,181.86 -291.98,293.82 -228.57,186.96 -385.31,364.9 -656.56,541.52 -254.98,166.04 -500.94,304.75 -685.88,485.58l-443.68 448.02c-76.78,76.56 -110.62,81.29 -153.15,152.49 410.81,283.4 908.32,456.06 1325.12,736.69 185.25,124.73 1246.16,677.85 1236.18,852.34 -65.15,155.45 -234.06,268.2 -323.77,510.93l-496.29 1176.58c-52.65,109.57 -260.52,452.93 -256.46,555.68 400.67,5.36 810.44,24.65 1210.3,-4.5 224.52,-16.37 1354.85,-138.65 1582.68,1.19 4.95,124.64 -324,503.59 -393.9,753.08 -62.43,222.81 -249.81,724.3 -263.67,905.99 704.41,-11.36 1117.82,-261.58 1759.33,-282.13 -19.7,-110.11 -101.13,-256.55 -146.74,-375.79 -131.95,-344.98 -70.92,-462.84 -341.96,-745.21 -84.32,-87.86 -172.63,-204.44 -250.79,-306.78 -80.05,-104.82 -144.62,-193.88 -218.67,-311.28 -130.27,-206.55 -57.13,-156.86 -308.24,-251.25 -816.82,-307.01 -1183.66,-1290.47 -1040.29,-2181.08 45.6,-283.2 158.11,-577.68 292.76,-790.67 271.01,-428.66 343.43,-310.66 593.16,-522.56 -10.26,-555.33 -85.01,-1224.28 -126.02,-1803.48 -97.25,-1373.65 -163.67,-3547.81 254.76,-4785.05 526.82,-1557.71 1536.99,-2640.22 3028.6,-3214.67 776.67,-299.11 1734.97,-489.26 2678.11,-416.77 1909.52,146.77 3203.03,1080 3935.74,2288.9 920.96,1519.48 778.77,4646.2 778.73,6760.2 359.9,236.49 394.78,136.75 726.75,541.44 670.26,817.08 680.14,2218.23 -106.81,2823.84 -198,152.38 -224.43,529.89 -390.38,891.87 -222.36,485.02 -612.21,1018.08 -695.68,1255.66 -180.29,513.15 -640.29,1348.44 -641.68,1353.04 198.89,37.69 442.25,102.41 644.23,160.99 108.68,31.52 209.14,60.56 323.94,95.14 122.03,36.75 195.36,93.56 329.41,113.32 -1.24,-299.66 -34.19,-666.02 -67.35,-962.5 -26.34,-235.47 -198.41,-656.48 -159.46,-830.77 233.63,-45.77 1012.61,119.89 1273.22,169.01 224.86,42.38 389.23,64.62 606.7,115.24 205.21,47.77 413.64,101.08 606.31,143.26 -111.41,-531.81 -1419.58,-2324.09 -1293.67,-2579.97 49.32,-100.24 924.03,-688.06 1072.58,-770.81 412.2,-229.62 849.16,-399.64 1290.53,-575.08 -52.81,-130.3 -760.94,-645.42 -955.08,-784.97 -486.29,-349.53 -776.4,-803.41 -1279.3,-1118.19 -530.25,-331.91 -422.85,-279.83 123.28,-626.31 194.44,-123.36 313.66,-192.42 549.2,-314.88 590.64,-307.08 1550.08,-548.19 2047.08,-909.15 107.58,-78.14 166.47,-96.2 288.76,-157.49 284.89,-142.79 769.58,-528.03 959.68,-764.68 -58.55,-57.16 -157.58,-88.36 -236.64,-121.53 -96.68,-40.58 -197.98,-70.13 -294.24,-98.04 -210.03,-60.88 -407.12,-108.53 -610.95,-172.04 -407.44,-126.96 -775.37,-250.92 -1188.63,-368.79 -750.01,-213.92 -1046.09,-281.69 -1686.72,-656.29 -136.44,-79.78 -431.85,-190.97 -365.71,-375.43 44.86,-45.34 245.17,-140.96 329.42,-201.28 100.83,-72.19 205.68,-158.96 294.49,-235.69 186.94,-161.54 380.34,-338.12 553.03,-533.3 309.69,-349.99 630.04,-826.24 884.51,-1291.22 402.62,-735.7 355.3,-645.17 857.34,-1288.3 243.52,-311.95 537.21,-543.69 812.82,-804.68 61.91,-58.63 256.54,-168.15 287.28,-253.76 -867.11,-46.25 -2029.6,283.51 -2865.65,434.71 -489.97,88.61 -2564.93,506.7 -2881.43,174.24 -51.93,-127.73 80.94,-1403.82 115.9,-1629.08 155.6,-1002.4 437.15,-2178.58 457.97,-3173.08 12.08,-576.94 114.66,-1121.21 64.78,-1719.1 -92.2,28.27 -257.32,208.58 -352.64,295.88 -113.01,103.5 -266.62,190.59 -385.84,282.85 -753.02,582.71 -1681.76,1010.66 -2414.96,1599.94 -855.77,687.79 -1587.51,1560.23 -2243.47,2439.74 -112.6,150.98 -213.53,310.7 -405.16,315.79z"/>
  <path class="fil1 str0" d="M12668.76 21864.98c-34.83,321.46 -6.1,444.85 -208.96,653.34 -276.12,283.79 -487.73,62.14 -717.62,170.27 -223.87,164.19 -61.47,587.04 -529.5,589.08 -426.8,1.85 -370.2,-547.54 -445.64,-666.06 -343.92,-24.02 -710.47,261.52 -763.4,-754.36 -78.75,-57.21 -504.82,-203.8 -625.1,-255.34 -1278.4,-547.79 -3045.21,-1905.41 -2754.48,-3529.6 91.35,-510.32 371.87,-886.74 727.3,-1081.7 529.65,-290.52 942.56,-104.74 1437.39,71.56 1632.42,581.57 2908.79,407.7 4401.33,-392.91 402.1,-215.69 799.31,-451.06 1339.71,-466.33 1150.25,-32.52 1837.86,752.79 1703.76,1947.44 -124.9,1112.65 -953.27,2240.19 -1678.48,2839.12 -537.51,443.93 -1189.57,714.93 -1886.31,875.49zm-6133.3 -7144.41c-9.32,-77.66 40.67,-123.12 111.1,-90.76 46.26,21.26 76.36,90.23 117.3,135.18 585.29,642.61 1722.87,589.96 2303.31,262.29 59.75,-33.73 255.99,-212.99 298.16,-76.68 77.22,249.63 -1396.47,785.51 -2312.4,250.82 -126.95,-74.11 -503.5,-364.48 -517.48,-480.85zm5877.99 389.21c110.16,-43.36 559.61,75.45 749.68,88.84 542.69,38.24 1402.82,-42.32 1816.33,-419.72 88.7,-80.96 136.43,-219.8 288.07,-155.08 25.23,355.39 -789.19,634.66 -1195.36,699.59 -301.31,48.17 -624.49,66.31 -936.57,42.12 -148.46,-11.51 -275.89,-30.51 -417.48,-58.4 -172.89,-34.06 -303.73,-28.17 -304.67,-197.36zm-798.71 18.79c79.51,167.03 -195.2,1678.7 -825.35,1843.57 -295.42,77.29 -571.63,-73.76 -691.43,-216.41 -545.63,-649.69 -100.53,-2214.44 132.18,-2990.54 43.54,-145.21 174.2,-273.63 206.94,-78.08 13.73,82.06 -1025.54,3059.16 163.41,3116.21 543.55,26.08 749.77,-999.09 826.86,-1419.68 28.11,-153.37 9.96,-288.32 187.39,-255.06zm1725.31 -5238.39c1345.89,-135.79 2369.39,969.12 2507.55,2154.02 97.27,834.19 -141.3,1322.41 -544.56,1776.1 -289.4,325.58 -893.03,725.75 -1532.2,812.12 -706.77,95.52 -1494.65,-82.97 -1920.41,-437.68 -429.4,-357.74 -655.63,-902.65 -657.41,-1704.38 -3.32,-1501.99 751.6,-2459.39 2147.02,-2600.17zm-5161.47 82.57c1230.83,-209.49 2410.59,604.01 2389.85,2100.22 -19.48,1405.32 -710.39,2341.71 -1970.4,2543.33 -1578.74,252.62 -2307.34,-667.98 -2408.72,-2096.69 -104.83,-1477.32 729.88,-2332.51 1989.27,-2546.86zm2524.41 -2683.91c816.63,-64.52 1676.58,79.5 2405.67,294.84 561.71,165.9 1555.4,508.6 1787.85,917.53 207.64,365.29 4.1,782.58 -330.75,874.7 -592.21,162.92 -3064.01,-1439.2 -5623.95,-270.49 -280.37,128 -647.82,340.73 -940.32,423.06 -407.58,114.71 -790.76,-44.95 -880.75,-391.33 -122.33,-470.88 230.69,-717.29 469.04,-883.02 861.72,-599.17 2021.78,-879.04 3113.2,-965.28zm-4546.22 9700.26c72.78,-15.04 133.5,-153.72 176.41,-206.97 201.72,-250.28 427.02,-414.22 752.98,-529.35 210.42,-74.32 479.89,-115.14 726.82,-105.64 170.06,6.55 680.96,47.82 554.04,244.77 -89.45,94.28 -985.21,-332.77 -1711.62,322.26 -381.86,344.34 -581.23,918.64 -599.91,1601.98 -29.35,1073.38 619.49,1904.37 1307.06,2568.8 96.82,93.56 247.37,156.92 217.58,322.13 -180.27,51.67 -145.94,-69.15 -288.28,-96.91 173.58,732.76 818.57,1473.44 1471.04,1886.56 725.24,459.2 1719.83,669.37 2756.82,648.28 1094.32,-22.27 1907.87,-271.47 2623.49,-781.19 347.39,-247.45 599.42,-499.75 859.94,-840.25 150.14,-196.23 551.28,-813.42 612.19,-1094.33 -117.25,28.59 -119.31,76.47 -205.76,162.5 -163.79,162.99 -300.64,149.42 -260,-4.2 15.85,-59.9 170.38,-178.4 223.09,-227.96 101.48,-95.41 184.96,-185.09 286.43,-298.96 539.88,-605.85 1007.69,-1498.75 1149.98,-2368.18 183.75,-1122.74 -230.14,-2485.27 -1524.63,-2485.65 -160.27,-0.05 -377.86,78.37 -503.04,11.25 -62.3,-153.64 95.41,-165.21 231.74,-181.9 301.7,-36.97 590.98,-14.41 875.1,86.17 134.18,47.5 227.43,121.99 348.06,161.63 70.04,-1789.26 91.67,-5740.58 -590.79,-7112.75 -795.84,-1600.12 -2690,-2800.68 -5235.26,-2415.65 -2225.78,336.69 -3607.43,1629.98 -4234.36,3508.44 -429.13,1285.81 -271.86,3947.67 -173.04,5431.33 37.47,562.59 72.49,1237.57 153.91,1793.78z"/>
  <path class="fil2 str0" d="M14056.6 21107.27c753.71,-420.63 1525.43,-1474.87 1838.9,-2348.12 447.97,-1247.97 -9.77,-2469.63 -1470.43,-2356.42 -26.52,292.73 -9.47,532.73 -226.22,662.27 -263.07,157.22 -486.42,-38.57 -664.7,-87.06 -11.92,267.72 -97.55,450.68 -287.13,554.82 -286.65,157.49 -467.07,-68.67 -613.96,-135.27 -49.89,216.88 -137.75,464.91 -365.83,523.36 -350.98,89.96 -443.34,-110.63 -661.18,-213.99 -220.36,570.11 -526.71,710.92 -899.19,169.88 -162.31,157.4 -244.08,297.02 -497.17,308.11 -245.66,10.76 -387.54,-140.46 -431.85,-353 -101.62,33.74 -520.15,374.05 -863.46,-30.76 -40.84,-48.16 -43.99,-57.31 -75.04,-119.55l-79.49 -130.55c-209.02,96.15 -381.94,236.19 -636.59,37.31 -215.1,-168 -199.68,-326.18 -248.84,-469.44 -19.82,-57.76 -7.18,-35.58 -34.53,-72.99 -925.65,54.02 -1369.06,1314.79 -782.11,2387.3 374.9,685.04 1197.27,1397.96 1925.09,1758 153.79,-66.39 206.39,-234.87 502.67,-264.79 299.1,-30.21 359.3,102.77 372.49,362.07 766.1,-353.43 683.44,35.84 769.62,272.41 30.29,-11.19 287.08,-194.01 309.1,-232.19 50.79,-88.05 93.83,-309.12 53.31,-422.39 -143.84,-161.68 -801.77,-228.08 -696.6,-658.51 79.29,-324.52 630,-401.19 976.67,-378.47 831.82,54.53 1178.55,630.17 1420.46,1254.42 303.16,-0.41 242.85,-8.43 446.05,110.37 106.83,-124.06 148.81,-337.69 393.4,-374.36 311.04,-46.63 352.7,170.97 526.56,247.53z"/>
  <path class="fil3 str0" d="M13927.09 12776.69c-50.21,15.02 -137.68,9.96 -191.92,33.47 -97.48,42.24 3.3,56.83 -152.48,100.87 -144.87,-32.63 -76.58,-49.59 -184,-126.9 -72.57,-52.23 -163.92,-48.5 -209.54,-124.54 -59.69,-99.48 1.22,-135.44 15.83,-233.15 21.22,-141.87 -14.59,-178.36 146.16,-184.52 113.31,-4.33 359.4,-179.48 502.29,141.56 78.61,176.62 144.42,196.05 73.67,393.21zm-687.95 -2682.25c-1267.82,193.63 -1874.32,1056.12 -1854.25,2480.46 9.63,683.75 247.47,1238.75 647.53,1521.57 413.19,292.09 1182.99,455.81 1815,330.34 1117.25,-221.81 2020.51,-1167.73 1796.43,-2467.33 -183.99,-1067.11 -1125.16,-2060.46 -2404.71,-1865.04z"/>
  <path class="fil3 str0" d="M8207.07 12819.02c-81.3,-93.62 -13.84,-50.44 -50.96,-145.92 -25.69,-66.09 -38.96,-53.83 -66.74,-100.16 -79.21,-132.06 -27.41,-176.25 61.16,-246.64 85.89,-68.25 123.96,-151.36 195.27,-172.8 84.76,-25.47 252.4,-8.78 315.52,14.79 120.27,67.68 110.91,391.38 133.37,484.58 22.07,91.59 59,63.44 -26.27,124.52 -58.43,76.3 -146.26,11.28 -297.3,64.09 -118.51,41.43 -173.96,82.26 -264.05,-22.45zm2157.45 -495.92c315.74,-2982.62 -3973.34,-2809.46 -3994.39,-111.83 -10.78,1381.21 507.8,2306.38 1944.12,2243.38 677.46,-29.71 1131.09,-306.31 1464.31,-639.22 358.07,-357.74 517.53,-845.89 585.96,-1492.33z"/>
  <path class="fil4 str0" d="M9182.89 27763.09c789.13,100.14 2470.67,65.27 3369.41,44.77 250.2,-5.71 859.4,-11.39 1070.13,-52.35l-2.69 -885.57c-142.16,-1208.22 -104.2,-1117.03 -450.13,-2262.17 -71.14,10.38 -493.38,213.9 -804.32,293.32 -300.14,76.66 -630.25,116.58 -957.07,118.35 -1242.83,6.74 -1556.65,-391.13 -1728.41,-433.02 -312.28,533.77 -526.68,2426.67 -496.92,3176.69z"/>
  <path class="fil3 str0" d="M9006.45 27763.24c24.02,-318.39 -1.34,-609.14 37.13,-934.09 35.45,-299.4 61.68,-581.18 107.45,-871.33 163.21,-1034.8 294.59,-1074.37 399.19,-1574.61 -630.76,9.29 -2714.95,613.83 -3414.04,816.24 -827.49,239.59 -847.77,219.72 -1243.8,874.77 -121.68,201.26 -699.06,1197.34 -704.35,1386.43 256.27,80.24 2939.23,268.66 3205.82,220.1 111.58,-232.56 207.33,-526.7 298.68,-757.17 90.48,-228.25 768.88,-2010.02 962.19,-2050.77 250,-52.72 -21.78,345.77 -30.26,362.46 -58.17,114.58 -109.39,223.75 -162.25,340.21l-592.08 1413.88c-72.11,184.26 -235.77,537.72 -263.08,721.54l1399.41 52.33z"/>
  <path class="fil3 str0" d="M15041.73 24744.37c-483.54,-122.96 -1241.88,-339.59 -1757.08,-362.47 43.24,236.86 174.33,516.72 238.86,766.84 142.32,551.55 199,1129.58 264.7,1684.27 35.02,295.67 -2.18,661.51 39.04,920.34l1383.46 -68.35c-30.7,-255.89 -682.69,-1756.28 -857.2,-2137.71 -138.76,-303.31 -443.23,-742.97 -167.92,-673.69 39.82,10.02 56.49,38.38 76.39,66.65 181.9,258.26 1082.82,2433.77 1156.11,2722.71 549,33.66 2535.79,-175.04 3222.55,-226.11 -46.74,-249.71 -847.21,-1744.34 -1184.92,-1981.34 -125.04,-87.75 -585.83,-205.08 -773.9,-260.59 -537.03,-158.51 -1087.42,-309.99 -1640.1,-450.54z"/>
  <path class="fil5 str0" d="M10181.53 21904.74c411.77,44.47 651.86,158.19 1144.18,147.05 389.69,-8.82 828.08,-134.56 1162.68,-136.65 -10.41,430 -137.93,605.06 -578.81,577.09 -579.32,-36.75 -316.6,504.17 -619.31,594.44 -440.88,131.47 -156.7,-624.53 -528.5,-662.03 -150.78,-15.2 -584.65,295.92 -580.23,-519.89zm501.13 -103.24c49.18,-125.78 353.83,-397.8 582.89,-306.65 82.23,91.57 94.34,214.82 99.04,366.53 -201.23,7.13 -509.48,13.96 -681.93,-59.88zm921.36 29.83c53.65,-214.05 201.04,-404.99 480.79,-364.52 64.22,78.69 98.01,136.97 102.94,278.94 -119.81,67.21 -433.24,86.14 -583.73,85.58zm-1761.27 -242.14c21.12,-115.41 98.19,-153.6 202.09,-203.56 115.8,-55.67 192.71,-68.96 339.14,-56.34 65.04,111.1 82.61,257.99 64.53,430.18l-605.76 -170.28zm2561.82 127.81c78.16,-435.02 652.98,-614.73 666.23,-170.66 -131.3,75.89 -485.12,153.29 -666.23,170.66zm-2756.85 -225.02l-471.11 -192.42c60.97,-113.6 198.25,-212.61 364.92,-208.01 230.59,6.38 135.15,232.65 106.19,400.43zm3615.78 -9.72c30.08,-174.93 109.83,-350.26 222.06,-420.84 171.24,-107.69 326.86,41.96 377.24,154.65 -132.92,93.45 -414.11,227.75 -599.3,266.19zm-759.72 -266.19c-30.93,52.3 -163.71,201.59 -203.48,244.45 -287.34,-354.08 -567.45,-133.41 -780.58,111.09 -138.49,-157.99 -43.79,-235.96 -360.24,-275.16 75.4,-666.8 4.45,-506.92 -469.77,-757.63 -537.5,-284.17 73.26,-473.4 383.78,-486.73 717.86,-30.83 1340.57,536.37 1430.28,1163.97zm1552.81 -108.8c-173.85,-76.57 -215.52,-294.16 -526.56,-247.53 -244.59,36.67 -286.57,250.31 -393.4,374.36 -203.19,-118.8 -142.88,-110.78 -446.05,-110.37 -241.91,-624.24 -588.64,-1199.89 -1420.46,-1254.42 -346.68,-22.73 -897.38,53.94 -976.67,378.47 -105.17,430.43 552.76,496.83 696.6,658.51 40.52,113.27 -2.52,334.34 -53.31,422.39 -22.02,38.18 -278.81,221 -309.1,232.19 -86.18,-236.56 -3.52,-625.84 -769.62,-272.41 -13.2,-259.3 -73.4,-392.28 -372.49,-362.07 -296.27,29.92 -348.88,198.4 -502.67,264.79 -727.83,-360.04 -1550.19,-1072.96 -1925.09,-1758 -586.95,-1072.51 -143.54,-2333.28 782.11,-2387.3 27.36,37.41 14.71,15.23 34.53,72.99 49.15,143.26 33.74,301.44 248.84,469.44 254.64,198.89 427.57,58.84 636.59,-37.31l79.49 130.55c31.05,62.24 34.2,71.39 75.04,119.55 343.31,404.81 761.83,64.51 863.46,30.76 44.32,212.53 186.19,363.76 431.85,353 253.1,-11.09 334.86,-150.71 497.17,-308.11 372.48,541.04 678.83,400.22 899.19,-169.88 217.84,103.35 310.2,303.95 661.18,213.99 228.08,-58.45 315.94,-306.48 365.83,-523.36 146.89,66.6 327.31,292.76 613.96,135.27 189.58,-104.14 275.21,-287.1 287.13,-554.82 178.28,48.49 401.64,244.28 664.7,87.06 216.75,-129.54 199.7,-369.54 226.22,-662.27 1460.67,-113.21 1918.41,1108.45 1470.43,2356.42 -313.47,873.25 -1085.19,1927.49 -1838.9,2348.12zm-4147.13 -3544.22l691.17 30.4c-15.94,470.35 -749.09,650.2 -691.17,-30.4zm895.95 16.42l646.9 -58.77c-17.53,201.98 -122.29,520 -321.25,513.24 -145.72,-4.95 -360.34,-307.68 -325.65,-454.47zm865.77 -99c36.95,-18.34 723.27,-217.18 782.35,-229.1 1.15,244.09 -70.59,492.54 -292.83,516.12 -215.2,22.85 -443.79,-186.91 -489.53,-287.03zm-2746.14 -163.22l803.46 212c-111.45,396.57 -789.36,439.41 -803.46,-212zm-873.82 -271.49c179.29,7.71 557.97,127.16 680.44,211.69 -133.57,384.3 -657.66,354.14 -680.44,-211.69zm4639.61 92.23l669.85 -339.39c8.15,247.41 -3.45,486.43 -188.37,579.65 -224.39,113.12 -429.67,-110.59 -481.48,-240.26zm851.82 -392.1c79.73,-160.79 544.86,-303.02 707.23,-304.75 4.94,185.67 -3.37,475.99 -224.15,501.69 -234.47,27.29 -353.07,-114.89 -483.08,-196.95zm-873.9 5119.1c696.74,-160.56 1348.8,-431.56 1886.31,-875.49 725.2,-598.93 1553.57,-1726.48 1678.48,-2839.12 134.1,-1194.65 -553.51,-1979.96 -1703.76,-1947.44 -540.39,15.28 -937.6,250.64 -1339.71,466.33 -1492.54,800.62 -2768.91,974.48 -4401.33,392.91 -494.83,-176.29 -907.73,-362.08 -1437.39,-71.56 -355.43,194.96 -635.95,571.38 -727.3,1081.7 -290.73,1624.19 1476.08,2981.81 2754.48,3529.6 120.27,51.54 546.35,198.13 625.1,255.34 52.93,1015.88 419.48,730.34 763.4,754.36 75.44,118.51 18.84,667.9 445.64,666.06 468.03,-2.04 305.63,-424.89 529.5,-589.08 229.89,-108.13 441.5,113.52 717.62,-170.27 202.86,-208.49 174.13,-331.88 208.96,-653.34z"/>
  <path class="fil6 str0" d="M10443.81 7497.39c-1022.77,132.09 -2014.21,386.93 -2815.81,961.53 -368.11,263.87 -463.68,619.96 -183.18,830.24 397.08,297.69 1164.23,-290.25 1824.15,-527.65 596.6,-214.62 1520.01,-339.61 2214.51,-254.94 733.72,89.44 1401.43,256.89 2068.2,448.11 208.23,59.72 806.93,290.62 990.18,227.26 251.25,-86.88 402.12,-501.66 -8.34,-792.66 -875.32,-620.57 -2904.71,-1044.92 -4089.69,-891.88z"/>
  <path class="fil7 str0" d="M10443.81 7497.39c1184.99,-153.04 3214.37,271.31 4089.69,891.88 410.46,291 259.59,705.78 8.34,792.66 -183.25,63.37 -781.94,-167.54 -990.18,-227.26 -666.77,-191.22 -1334.48,-358.67 -2068.2,-448.11 -694.5,-84.67 -1617.91,40.33 -2214.51,254.94 -659.92,237.4 -1427.07,825.34 -1824.15,527.65 -280.5,-210.28 -184.92,-566.38 183.18,-830.24 801.6,-574.6 1793.05,-829.44 2815.81,-961.53zm259.19 -208.53c-1091.42,86.25 -2251.48,366.11 -3113.2,965.28 -238.35,165.73 -591.37,412.15 -469.04,883.02 89.98,346.38 473.17,506.04 880.75,391.33 292.5,-82.33 659.95,-295.06 940.32,-423.06 2559.94,-1168.71 5031.74,433.41 5623.95,270.49 334.85,-92.13 538.39,-509.42 330.75,-874.7 -232.45,-408.93 -1226.15,-751.63 -1787.85,-917.53 -729.09,-215.34 -1589.05,-359.36 -2405.67,-294.84z"/>
  <path class="fil8 str0" d="M9749.72 23639.24c-2.2,188.57 -6.05,432.94 6.41,618.07 45,668.54 2670.66,767.2 3322.66,136.81l-16.83 -775.23c-258.24,42.07 -491.51,120.61 -761.63,159.52 -538.3,77.53 -1191.95,74.27 -1732.06,10.95 -288.56,-33.83 -559.55,-117.53 -818.55,-150.12z"/>
  <path class="fil7 str0" d="M13239.14 10094.44c1279.54,-195.42 2220.72,797.94 2404.71,1865.04 224.09,1299.6 -679.17,2245.52 -1796.43,2467.33 -632,125.47 -1401.81,-38.25 -1815,-330.34 -400.06,-282.82 -637.9,-837.82 -647.53,-1521.57 -20.07,-1424.34 586.43,-2286.83 1854.25,-2480.46zm100.91 -204.24c-1395.42,140.78 -2150.34,1098.19 -2147.02,2600.17 1.78,801.73 228.01,1346.64 657.41,1704.38 425.76,354.71 1213.64,533.19 1920.41,437.68 639.16,-86.37 1242.8,-486.54 1532.2,-812.12 403.26,-453.68 641.83,-941.9 544.56,-1776.1 -138.16,-1184.9 -1161.66,-2289.8 -2507.55,-2154.02z"/>
  <path class="fil7 str0" d="M10364.52 12323.1c-68.43,646.44 -227.89,1134.59 -585.96,1492.33 -333.22,332.91 -786.85,609.51 -1464.31,639.22 -1436.33,63 -1954.9,-862.18 -1944.12,-2243.38 21.05,-2697.62 4310.13,-2870.79 3994.39,111.83zm-2185.93 -2350.33c-1259.39,214.35 -2094.1,1069.54 -1989.27,2546.86 101.38,1428.71 829.97,2349.31 2408.72,2096.69 1260.01,-201.62 1950.92,-1138.01 1970.4,-2543.33 20.74,-1496.2 -1159.02,-2309.71 -2389.85,-2100.22z"/>
  <path class="fil1 str0" d="M6095.7 19526.02c-104.48,-500.78 -308.24,-673.64 -208.27,-1516.49 30.69,-258.83 125.72,-486.53 102.36,-730.67 -26.83,-280.41 -44.45,-552.34 -75.63,-826.62 -250.2,39.57 -453.93,361.71 -564.62,599.96 -468.47,1008.37 40.01,2298.91 746.17,2473.82z"/>
  <path class="fil9 str0" d="M12503.79 21216.07c-89.72,-627.6 -712.42,-1194.8 -1430.28,-1163.97 -310.52,13.33 -921.28,202.56 -383.78,486.73 474.22,250.71 545.17,90.83 469.77,757.63 316.45,39.2 221.76,117.17 360.24,275.16 213.13,-244.51 493.23,-465.17 780.58,-111.09 39.76,-42.86 172.55,-192.15 203.48,-244.45z"/>
  <path class="fil1 str0" d="M17005.2 18193.49c200.55,-95.61 354.33,-408.67 416.82,-694.45 254.98,-1166.07 -555.35,-2197.49 -983.9,-2212.36 -32.44,1234.81 -6.05,309.12 406.4,1329.68 212.79,526.52 213.43,966.84 160.68,1577.13z"/>
  <path class="fil10 str0" d="M10181.53 21904.74c-4.43,815.81 429.44,504.69 580.23,519.89 371.8,37.5 87.62,793.5 528.5,662.03 302.71,-90.27 39.99,-631.19 619.31,-594.44 440.89,27.97 568.41,-147.09 578.81,-577.09 -334.6,2.09 -772.99,127.84 -1162.68,136.65 -492.31,11.14 -732.41,-102.58 -1144.18,-147.05z"/>
  <path class="fil7 str0" d="M11614.74 15128.58c-177.43,-33.26 -159.28,101.69 -187.39,255.06 -77.09,420.59 -283.31,1445.76 -826.86,1419.68 -1188.95,-57.05 -149.68,-3034.15 -163.41,-3116.21 -32.74,-195.55 -163.4,-67.13 -206.94,78.08 -232.72,776.1 -677.81,2340.85 -132.18,2990.54 119.8,142.65 396.01,293.71 691.43,216.41 630.16,-164.87 904.86,-1676.53 825.35,-1843.57z"/>
  <path class="fil11 str0" d="M6763.86 14765c-40.94,-44.95 -71.04,-113.92 -117.3,-135.18 -70.43,-32.36 -120.42,13.1 -111.1,90.76 13.98,116.37 390.53,406.74 517.48,480.85 915.93,534.69 2389.62,-1.19 2312.4,-250.82 -42.17,-136.32 -238.41,42.95 -298.16,76.68 -580.45,327.68 -1718.03,380.32 -2303.31,-262.29z"/>
  <path class="fil11 str0" d="M12413.45 15109.79c0.94,169.19 131.78,163.3 304.67,197.36 141.59,27.89 269.02,46.89 417.48,58.4 312.08,24.19 635.26,6.05 936.57,-42.12 406.17,-64.93 1220.59,-344.2 1195.36,-699.59 -151.64,-64.72 -199.38,74.12 -288.07,155.08 -413.51,377.39 -1273.63,457.96 -1816.33,419.72 -190.07,-13.39 -639.52,-132.2 -749.68,-88.84z"/>
  <path class="fil7 str0" d="M8207.07 12819.02c90.09,104.71 145.54,63.88 264.05,22.45 151.05,-52.8 238.87,12.21 297.3,-64.09 85.27,-61.08 48.34,-32.93 26.27,-124.52 -22.46,-93.2 -13.1,-416.9 -133.37,-484.58 -63.12,-23.57 -230.76,-40.26 -315.52,-14.79 -71.32,21.44 -109.38,104.55 -195.27,172.8 -88.57,70.39 -140.36,114.58 -61.16,246.64 27.78,46.33 41.05,34.07 66.74,100.16 37.13,95.48 -30.34,52.31 50.96,145.92z"/>
  <path class="fil7 str0" d="M13927.09 12776.69c70.75,-197.16 4.95,-216.59 -73.67,-393.21 -142.89,-321.04 -388.98,-145.89 -502.29,-141.56 -160.75,6.16 -124.94,42.65 -146.16,184.52 -14.61,97.71 -75.52,133.67 -15.83,233.15 45.62,76.04 136.96,72.31 209.54,124.54 107.42,77.32 39.13,94.27 184,126.9 155.78,-44.04 55.01,-58.64 152.48,-100.87 54.24,-23.5 141.71,-18.44 191.92,-33.47z"/>
  <path class="fil12 str0" d="M8925.05 17317.24c14.1,651.41 692.01,608.57 803.46,212l-803.46 -212z"/>
  <path class="fil12 str0" d="M11671.19 17480.47c45.73,100.12 274.32,309.87 489.53,287.03 222.24,-23.59 293.98,-272.03 292.83,-516.12 -59.09,11.92 -745.4,210.76 -782.35,229.1z"/>
  <path class="fil12 str0" d="M9909.47 17563.05c-57.92,680.6 675.23,500.75 691.17,30.4l-691.17 -30.4z"/>
  <path class="fil12 str0" d="M12690.84 17137.98c51.81,129.67 257.09,353.38 481.48,240.26 184.91,-93.22 196.52,-332.24 188.37,-579.65l-669.85 339.39z"/>
  <path class="fil12 str0" d="M13542.66 16745.88c130.02,82.06 248.62,224.24 483.08,196.95 220.78,-25.71 229.09,-316.03 224.15,-501.69 -162.38,1.72 -627.5,143.96 -707.23,304.75z"/>
  <path class="fil12 str0" d="M10805.42 17579.47c-34.69,146.79 179.93,449.52 325.65,454.47 198.96,6.76 303.73,-311.26 321.25,-513.24l-646.9 58.77z"/>
  <path class="fil12 str0" d="M8051.24 17045.75c22.78,565.83 546.87,595.99 680.44,211.69 -122.47,-84.53 -501.15,-203.97 -680.44,-211.69z"/>
  <path class="fil12 str0" d="M10682.66 21801.5c172.45,73.84 480.7,67 681.93,59.88 -4.7,-151.71 -16.81,-274.95 -99.04,-366.53 -229.06,-91.15 -533.71,180.87 -582.89,306.65z"/>
  <path class="fil13 str0" d="M12404.58 21717c181.11,-17.37 534.93,-94.76 666.23,-170.66 -13.25,-444.07 -588.07,-264.36 -666.23,170.66z"/>
  <path class="fil12 str0" d="M10448.52 21759.47c18.08,-172.19 0.51,-319.08 -64.53,-430.18 -146.44,-12.61 -223.34,0.67 -339.14,56.34 -103.9,49.96 -180.97,88.14 -202.09,203.56l605.76 170.28z"/>
  <path class="fil12 str0" d="M11604.03 21831.33c150.49,0.56 463.92,-18.37 583.73,-85.58 -4.92,-141.97 -38.71,-200.24 -102.94,-278.94 -279.76,-40.47 -427.14,150.47 -480.79,364.52z"/>
  <path class="fil12 str0" d="M13263.51 21482.26c185.18,-38.44 466.38,-172.74 599.3,-266.19 -50.38,-112.69 -206,-262.34 -377.24,-154.65 -112.23,70.58 -191.97,245.91 -222.06,420.84z"/>
  <path class="fil12 str0" d="M9647.73 21491.98c28.96,-167.77 124.4,-394.05 -106.19,-400.43 -166.67,-4.61 -303.96,94.4 -364.92,208.01l471.11 192.42z"/>
 </g>
</svg>
